<svg xmlns="http://www.w3.org/2000/svg"  viewBox="0 0 48 48" width="48px" height="48px"><path d="M 24 4.0117188 C 22.667945 4.0117188 21.365847 4.1426661 20.105469 4.3925781 A 1.50015 1.50015 0 1 0 20.689453 7.3339844 C 21.759075 7.1218964 22.864055 7.0117188 24 7.0117188 C 33.39226 7.0117188 40.986328 14.605787 40.986328 23.998047 C 40.986328 26.307366 40.526245 28.504113 39.693359 30.507812 A 1.5003773 1.5003773 0 1 0 42.464844 31.658203 C 43.445959 29.297903 43.986328 26.706728 43.986328 23.998047 C 43.986328 12.982306 35.01574 4.0117187 24 4.0117188 z M 9.5332031 10.917969 A 1.50015 1.50015 0 0 0 8.4082031 11.494141 C 5.6586053 14.917087 4.0117186 19.275278 4.0117188 23.996094 C 4.0117188 35.011834 12.982306 43.984375 23.998047 43.984375 C 27.866004 43.984375 31.493383 42.878494 34.556641 40.966797 A 1.50015 1.50015 0 1 0 32.96875 38.421875 C 30.366007 40.046177 27.29609 40.984375 23.998047 40.984375 C 14.605787 40.984375 7.0117187 33.388353 7.0117188 23.996094 C 7.0117188 19.97091 8.4076912 16.2841 10.746094 13.373047 A 1.50015 1.50015 0 0 0 9.5332031 10.917969 z M 30.996094 12.996094 C 28.959004 12.996094 27.274122 14.56272 27.039062 16.541016 C 25.932463 16.045782 24.773492 15.982422 23.888672 15.982422 C 21.721611 15.982422 20.123268 16.752625 18.439453 18.4375 L 15.439453 21.4375 A 1.50015 1.50015 0 0 0 16.5 23.998047 L 19.333984 23.998047 L 12.464844 30.554688 A 1.50015 1.50015 0 0 0 12.830078 32.980469 L 18.830078 35.980469 A 1.50015 1.50015 0 0 0 21 34.638672 L 21 32.361328 C 21.989287 31.450493 22.923963 30.756237 23.929688 30.109375 C 25.086286 29.365473 26.358371 28.558496 27.681641 27.236328 C 28.621167 26.297299 29.43367 25.529679 30.056641 24.488281 C 30.625731 23.536952 30.90846 22.368231 30.958984 21.003906 C 30.972104 21.004036 30.982954 21.011719 30.996094 21.011719 C 33.190997 21.011719 35.001953 19.198909 35.001953 17.003906 C 35.001953 14.808903 33.190997 12.996094 30.996094 12.996094 z M 30.996094 15.996094 C 31.563191 15.996094 32.001953 16.432909 32.001953 17.003906 C 32.001953 17.574903 31.563191 18.011719 30.996094 18.011719 C 30.428997 18.011719 29.992186 17.574903 29.992188 17.003906 C 29.992188 16.432186 30.427408 15.996094 30.996094 15.996094 z M 23.888672 18.982422 C 24.054052 18.982422 24.27578 19.012962 24.511719 19.056641 L 22.476562 20.998047 L 20.121094 20.998047 L 20.560547 20.558594 C 22.054732 19.063468 22.157732 18.982422 23.888672 18.982422 z M 27.714844 20.224609 C 27.778564 20.320598 28 20.488587 28 20.638672 C 28 21.81517 27.826451 22.372164 27.482422 22.947266 C 27.138393 23.522367 26.511021 24.16331 25.560547 25.113281 C 24.480817 26.192113 23.470541 26.839293 22.306641 27.587891 C 21.14274 28.336488 19.832371 29.185208 18.439453 30.578125 A 1.50015 1.50015 0 0 0 18 31.638672 L 18 32.210938 L 16.078125 31.251953 L 27.363281 20.480469 A 1.50015 1.50015 0 0 0 27.365234 20.480469 C 27.462664 20.387219 27.58486 20.317511 27.714844 20.224609 z"/></svg>